<?xml version="1.0" encoding="UTF-8" standalone="no"?>
<!-- Created with Inkscape (http://www.inkscape.org/) -->

<svg
   xmlns:dc="http://purl.org/dc/elements/1.1/"
   xmlns:cc="http://creativecommons.org/ns#"
   xmlns:rdf="http://www.w3.org/1999/02/22-rdf-syntax-ns#"
   xmlns:svg="http://www.w3.org/2000/svg"
   xmlns="http://www.w3.org/2000/svg"
   xmlns:sodipodi="http://sodipodi.sourceforge.net/DTD/sodipodi-0.dtd"
   xmlns:inkscape="http://www.inkscape.org/namespaces/inkscape"
   width="83.708969mm"
   height="37.847771mm"
   viewBox="0 0 296.60658 134.10627"
   id="svg2"
   version="1.1"
   inkscape:version="0.91 r13725"
   sodipodi:docname="htl-logo.svg">
  <defs
     id="defs4" />
  <sodipodi:namedview
     id="base"
     pagecolor="#ffffff"
     bordercolor="#666666"
     borderopacity="1.0"
     inkscape:pageopacity="0.0"
     inkscape:pageshadow="2"
     inkscape:zoom="1.979899"
     inkscape:cx="207.44525"
     inkscape:cy="133.5025"
     inkscape:document-units="px"
     inkscape:current-layer="layer1"
     showgrid="false"
     fit-margin-top="0"
     fit-margin-left="0"
     fit-margin-right="0"
     fit-margin-bottom="0"
     inkscape:showpageshadow="false"
     inkscape:window-width="1920"
     inkscape:window-height="1137"
     inkscape:window-x="-8"
     inkscape:window-y="56"
     inkscape:window-maximized="1" />
  <metadata
     id="metadata7">
    <rdf:RDF>
      <cc:Work
         rdf:about="">
        <dc:format>image/svg+xml</dc:format>
        <dc:type
           rdf:resource="http://purl.org/dc/dcmitype/StillImage" />
        <dc:title></dc:title>
      </cc:Work>
    </rdf:RDF>
  </metadata>
  <g
     inkscape:label="Ebene 1"
     inkscape:groupmode="layer"
     id="layer1"
     transform="translate(0,-918.25593)">
    <g
       id="g4209"
       transform="translate(-78.928572,676.25087)">
      <path
         id="path4171"
         d="m 367.67773,338.96875 0.17969,2.67969 -2.32226,0 c 0,0 -0.76555,-1.03831 -1.25,-1.42969 -0.48445,-0.39138 -1.60743,-0.89258 -1.60743,-0.89258 l -4.19921,-0.0742 c 0,0 -3.24024,1.93403 -4.29688,3.11914 -1.05664,1.18511 -2.57422,4.09766 -2.57422,4.09766 l 0,11.42969 c 0,0 1.43642,2.82499 2.32031,3.92773 0.88389,1.10274 2.85743,2.67969 2.85743,2.67969 0,0 3.897,0.97078 5.53711,0.89258 1.64011,-0.0782 4.10546,-1.07227 4.10546,-1.07227 l 0,2.67969 c 0,0 -2.42891,1.26426 -4.05468,1.22656 -1.62577,-0.0377 -5.25196,-1.81445 -5.25196,-1.81445 l -5.51367,5.05078 c 0,0 2.25807,1.74824 3.57031,2.5 1.31224,0.75176 4.28711,1.96484 4.28711,1.96484 l 9.10743,-0.17773 c 0,0 3.10589,-2.26727 4.28515,-3.75 1.17926,-1.48273 2.67774,-5 2.67774,-5 l -0.35743,-27.67969 -7.5,-0.35742 z m -4.10546,7.67969 2.67773,1.25 0,7.14258 -2.5,1.78515 -2.85742,-1.42773 -0.35742,-7.67969 3.03711,-1.07031 z"
         style="fill:#256a81;fill-opacity:1;fill-rule:evenodd;stroke:none;stroke-width:1px;stroke-linecap:butt;stroke-linejoin:miter;stroke-opacity:1"
         inkscape:connector-curvature="0" />
      <path
         sodipodi:nodetypes="ccczcczcczcccc"
         inkscape:connector-curvature="0"
         id="path4169"
         d="m 331.25,367.18363 9.10714,0 -0.53571,-18.21428 c 0,0 1.02351,-1.9394 2.85714,-1.96429 1.83363,-0.0249 2.85715,1.78571 2.85715,1.78571 l 6.4592,-6.92281 c 0,0 -0.94052,-1.13484 -1.81635,-1.64861 -0.87583,-0.51377 -2.85714,-1.07143 -2.85714,-1.07143 l -4.64286,0.35714 c 0,0 -1.32325,0.56756 -1.96428,1.07143 -0.64103,0.50387 -1.78572,1.96428 -1.78572,1.96428 l -0.17857,-3.21428 -7.32143,0 z"
         style="fill:#256a81;fill-opacity:1;fill-rule:evenodd;stroke:none;stroke-width:1px;stroke-linecap:butt;stroke-linejoin:miter;stroke-opacity:1" />
      <path
         sodipodi:nodetypes="czccccccccsccscccsccc"
         inkscape:connector-curvature="0"
         id="path4161"
         d="m 291.96484,338.96875 c 0,0 -3.96768,-0.2677 -5.54121,0.11091 -1.57353,0.37861 -3.74928,1.82144 -3.74928,1.82144 l -0.003,-1.74634 -8.56414,0.17141 0,36.78516 0.35742,-0.71289 9.10743,0 0,-8.75 8.21289,0.17773 c 0,0 2.54534,-0.65326 4.18164,-2.08984 1.6363,-1.43658 2.06836,-3.26758 2.06836,-3.26758 l 0.35742,-16.60742 c 0,0 -0.55612,-1.5623 -2.32031,-3.5293 -1.76419,-1.967 -4.10743,-2.36328 -4.10743,-2.36328 z m -8.57226,8.39258 3.92969,0 c 0,0 2.16317,0.82718 2.28906,5.22265 0.12589,4.39548 -1.9336,5.49219 -1.9336,5.49219 l -4.28515,0.17969 z"
         style="fill:#256a81;fill-opacity:1;fill-rule:evenodd;stroke:none;stroke-width:1px;stroke-linecap:butt;stroke-linejoin:miter;stroke-opacity:1" />
      <path
         id="path4165"
         d="m 310.35742,339.32617 c 0,0 -2.60645,-0.072 -5.82031,3.61328 -3.21386,3.68524 -3.22454,6.8785 -3.10938,6.74414 l 0,9.10743 c 0,0 1.32711,3.07044 3.4668,5.23242 2.13969,2.16198 5.2832,3.33789 5.2832,3.33789 l 7.85743,0.17969 c 0,0 3.09297,-0.76131 4.46484,-1.60743 1.37187,-0.84612 3.57227,-3.39257 3.57227,-3.39257 l -5.53711,-5.53516 c 0,0 -0.68713,0.96315 -1.25,1.42773 -0.56287,0.46458 -2.14258,1.25 -2.14258,1.25 l -4.28516,0 c 0,0 -1.14912,-0.61664 -1.60742,-1.25 -0.4583,-0.63336 -0.89258,-2.5 -0.89258,-2.5 l 15.89258,0.35743 0.17773,-8.57227 c 0,0 -0.6085,-3.21915 -2.51953,-5.25195 -1.91103,-2.0328 -4.62304,-3.14063 -4.62304,-3.14063 l -8.92774,0 z m 3.57031,7.32227 c 3.24104,0.14758 3.57227,3.57031 3.57227,3.57031 l -7.14258,-0.17773 c 0,0 0.32927,-3.54016 3.57031,-3.39258 z"
         style="fill:#256a81;fill-opacity:1;fill-rule:evenodd;stroke:none;stroke-width:1px;stroke-linecap:butt;stroke-linejoin:miter;stroke-opacity:1"
         inkscape:connector-curvature="0" />
      <path
         sodipodi:nodetypes="cccczccccsccc"
         inkscape:connector-curvature="0"
         id="path4147"
         d="m 78.928572,368.43363 8.571428,-97.5 30.71429,-6.42857 -1.07143,26.07143 c 0,0 16.61528,-14.34517 32.85714,-12.14286 16.24187,2.20231 23.21429,25.35714 23.21429,25.35714 l 0,65.00001 -34.28572,-0.35715 L 140,310.57649 c 0,0 -3.14662,-6.34002 -10.71429,-5.71429 -9.1034,0.75271 -13.21428,10.71429 -13.21428,10.71429 l -2.5,53.57143 z"
         style="fill:#256a81;fill-opacity:1;fill-rule:evenodd;stroke:none;stroke-width:1px;stroke-linecap:butt;stroke-linejoin:miter;stroke-opacity:1" />
      <path
         sodipodi:nodetypes="ccczcccczccczccc"
         inkscape:connector-curvature="0"
         id="path4149"
         d="m 182.14286,257.3622 32.14285,-5 2.5,85 c 0,0 0.4668,1.52882 1.02679,2.09822 0.55998,0.5694 2.1875,1.11607 2.1875,1.11607 l 36.07143,-0.35714 0,27.14285 -43.21429,0.35715 c 0,0 -9.08844,-0.46796 -18.33023,-6.69236 -9.24179,-6.2244 -11.31262,-15.09336 -11.31262,-15.09336 l 0,-44.64286 L 175,301.64792 c 0,0 -1.99703,-7.59577 -5.08929,-12.58929 -3.09225,-4.99352 -7.49999,-8.74999 -7.49999,-8.74999 L 182.5,279.14792 Z"
         style="fill:#256a81;fill-opacity:1;fill-rule:evenodd;stroke:none;stroke-width:1px;stroke-linecap:butt;stroke-linejoin:miter;stroke-opacity:1" />
      <path
         inkscape:connector-curvature="0"
         id="path4151"
         d="m 226.77925,250.30108 29.7995,-5.05076 0,92.42896 -28.78935,0.50507 z"
         style="fill:#256a81;fill-opacity:1;fill-rule:evenodd;stroke:none;stroke-width:1px;stroke-linecap:butt;stroke-linejoin:miter;stroke-opacity:1" />
      <path
         inkscape:connector-curvature="0"
         id="path4153"
         d="m 260.89286,243.07649 8.03571,-1.07143 0.17857,28.39286 -7.67857,0.17857 z"
         style="fill:#256a81;fill-opacity:1;fill-rule:evenodd;stroke:none;stroke-width:1px;stroke-linecap:butt;stroke-linejoin:miter;stroke-opacity:1" />
      <path
         sodipodi:nodetypes="ccccc"
         inkscape:connector-curvature="0"
         id="path4155"
         d="m 261.78571,273.6122 7.32143,0 0.17857,28.39286 -6.96428,0 z"
         style="fill:none;fill-rule:evenodd;stroke:#256a81;stroke-width:1.5;stroke-linecap:butt;stroke-linejoin:miter;stroke-miterlimit:4;stroke-dasharray:none;stroke-opacity:1" />
      <path
         inkscape:connector-curvature="0"
         id="path4157"
         d="m 262.14286,305.75506 7.85714,0 0.17857,29.10714 -8.39286,0 z"
         style="fill:#256a81;fill-opacity:1;fill-rule:evenodd;stroke:none;stroke-width:1px;stroke-linecap:butt;stroke-linejoin:miter;stroke-opacity:1" />
      <path
         inkscape:connector-curvature="0"
         id="path4159"
         d="m 261.96429,367.3622 7.5,0 0.53571,-27.5 -8.39286,0 z"
         style="fill:#256a81;fill-opacity:1;fill-rule:evenodd;stroke:none;stroke-width:1px;stroke-linecap:butt;stroke-linejoin:miter;stroke-opacity:1" />
    </g>
  </g>
</svg>
